<svg xmlns="http://www.w3.org/2000/svg" viewBox="0 0 64 64" width="64" height="64">
  <defs>
    <linearGradient id="headGrad" x1="0" y1="0" x2="0" y2="1">
      <stop offset="0%" stop-color="#2bb3f5"/>
      <stop offset="100%" stop-color="#1a8fd0"/>
    </linearGradient>
    <radialGradient id="faceGrad" cx="50%" cy="50%" r="50%">
      <stop offset="0%" stop-color="#ffffff"/>
      <stop offset="100%" stop-color="#f0f0f0"/>
    </radialGradient>
    <radialGradient id="noseGrad" cx="40%" cy="40%" r="60%">
      <stop offset="0%" stop-color="#ff5050"/>
      <stop offset="100%" stop-color="#cc0000"/>
    </radialGradient>
  </defs>
  <circle cx="32" cy="32" r="30" fill="url(#headGrad)"/>
  <ellipse cx="32" cy="37" rx="20" ry="17" fill="url(#faceGrad)"/>
  <circle cx="32" cy="32" r="30" fill="none" stroke="#ffffff" stroke-width="0.5" opacity="0.3"/>
  <ellipse cx="25.5" cy="22" rx="4.2" ry="5.5" fill="#ffffff" stroke="#111" stroke-width="1.4"/>
  <ellipse cx="38.5" cy="22" rx="4.2" ry="5.5" fill="#ffffff" stroke="#111" stroke-width="1.4"/>
  <rect x="31" y="22" width="2" height="11" fill="#111"/>
  <circle cx="27.5" cy="23.5" r="1.5" fill="#111"/>
  <circle cx="36.5" cy="23.5" r="1.5" fill="#111"/>
  <circle cx="28" cy="23" r="0.5" fill="#fff"/>
  <circle cx="37" cy="23" r="0.5" fill="#fff"/>
  <circle cx="32" cy="30" r="3" fill="url(#noseGrad)" stroke="#111" stroke-width="0.6"/>
  <circle cx="30.8" cy="29" r="0.7" fill="#fff" opacity="0.7"/>
  <path d="M 32 33 L 32 41.5" stroke="#111" stroke-width="1.5" stroke-linecap="round" fill="none"/>
  <path d="M 18 40.5 Q 32 54 46 40.5" fill="none" stroke="#111" stroke-width="1.6" stroke-linecap="round"/>
  <line x1="4"  y1="25"   x2="17"  y2="26.5" stroke="#111" stroke-width="1.4" stroke-linecap="round"/>
  <line x1="3"  y1="30"   x2="16"  y2="30"   stroke="#111" stroke-width="1.4" stroke-linecap="round"/>
  <line x1="4"  y1="35"   x2="17"  y2="33.5" stroke="#111" stroke-width="1.4" stroke-linecap="round"/>
  <line x1="47" y1="26.5" x2="60"  y2="25"   stroke="#111" stroke-width="1.4" stroke-linecap="round"/>
  <line x1="48" y1="30"   x2="61"  y2="30"   stroke="#111" stroke-width="1.4" stroke-linecap="round"/>
  <line x1="47" y1="33.5" x2="60"  y2="35"   stroke="#111" stroke-width="1.4" stroke-linecap="round"/>
  <ellipse cx="32" cy="46" rx="18" ry="1" fill="#000" opacity="0.08"/>
</svg>